<?xml version="1.0" encoding="UTF-8"?>
<svg width="100px" height="74px" viewBox="0 0 100 74" version="1.1" xmlns="http://www.w3.org/2000/svg" xmlns:xlink="http://www.w3.org/1999/xlink">
    <title>noun_Cow_916737</title>
    <g id="home" stroke="none" stroke-width="1" fill="none" fill-rule="evenodd">
        <g id="homepage-desktop-v1" transform="translate(-835.000000, -1610.000000)" fill="#693D3B">
            <g id="What-We-do" transform="translate(228.000000, 1564.394286)">
                <g id="animal-health-&amp;-nutrition" transform="translate(561.000000, 46.291429)">
                    <g id="noun_Cow_916737" transform="translate(46.000000, 0.000000)">
                        <path d="M11.6666665,28.9307972 C8.24879986,28.9307972 5.44444435,31.7832274 5.44444435,35.259686 L5.44444435,70.0669921 C5.44444435,70.9406952 6.14102212,71.6492143 6.99999988,71.6492143 L14.7777775,71.6492143 C15.6367553,71.6492143 16.3333331,70.9406952 16.3333331,70.0669921 L16.3333331,63.7384197 C20.0053774,63.7384197 23.1251996,61.2881904 23.9530663,57.4468714 L44.3333326,57.4088981 L44.3333326,70.0660427 C44.3333326,70.9397458 45.0299103,71.6482649 45.8888881,71.6482649 L53.6666658,71.6482649 C54.5256435,71.6482649 55.2222213,70.9397458 55.2222213,70.0660427 L55.2222213,59.1025087 C55.2222213,57.4234545 55.8780435,55.8149674 57.0450213,54.6276679 L66.11111,45.4067934 L68.1224433,47.4522902 C68.6587988,48.0013213 69.5071988,48.0750529 70.1275544,47.6263347 L74.6728876,44.3198067 C75.8267987,43.4818618 76.1618654,41.8423632 75.4323098,40.6056983 L70.3583988,32.0025234 C69.2352877,30.0981607 67.2068433,28.9307972 65.0234656,28.9307972 L11.6666665,28.9307972 Z M11.6666665,32.0952416 L65.0234656,32.0952416 C66.1185767,32.0952416 67.12751,32.6790816 67.6909322,33.6344273 L72.5946654,41.9467899 L69.3923988,44.2704414 L68.3106655,43.1704805 C67.1088433,41.9477392 65.1133767,41.9477392 63.9115545,43.1704805 L54.8454657,52.391355 C53.0957769,54.171355 52.1111102,56.586459 52.1111102,59.103458 L52.1111102,68.4847699 L47.4444436,68.4847699 L47.4444436,55.8276252 C47.4444436,54.9539221 46.7478659,54.245403 45.8888881,54.245403 L22.5555554,54.245403 C21.6965774,54.245403 20.9999996,54.9539221 20.9999996,55.8276252 C20.9999996,58.4680376 18.9292441,60.5739753 16.3333331,60.5739753 L16.3333331,54.245403 L13.222222,54.245403 L13.222222,68.4847699 L8.55555541,68.4847699 L8.55555541,35.259686 C8.55555541,33.4932931 9.93004428,32.0952416 11.6666665,32.0952416 L11.6666665,32.0952416 Z" id="Shape"></path>
                        <path d="M1.5798222,68.4847699 C1.01999488,68.4785354 0.500050157,68.7787343 0.218352086,69.2708377 C-0.063345985,69.7629411 -0.063345985,70.371043 0.218352086,70.8631464 C0.500050157,71.3552498 1.01999488,71.6554487 1.5798222,71.6492143 L29.5312884,71.6492143 C30.0911157,71.6554487 30.6110604,71.3552498 30.8927585,70.8631464 C31.1744566,70.371043 31.1744566,69.7629411 30.8927585,69.2708377 C30.6110604,68.7787343 30.0911157,68.4785354 29.5312884,68.4847699 L1.5798222,68.4847699 Z" id="Path"></path>
                        <path d="M40.4201771,68.4847699 C39.8603498,68.4785354 39.3404051,68.7787343 39.058707,69.2708377 C38.7770089,69.7629411 38.7770089,70.371043 39.058707,70.8631464 C39.3404051,71.3552498 39.8603498,71.6554487 40.4201771,71.6492143 L97.9757317,71.6492143 C98.535559,71.6554487 99.0555037,71.3552498 99.3372018,70.8631464 C99.6188998,70.371043 99.6188998,69.7629411 99.3372018,69.2708377 C99.0555037,68.7787343 98.535559,68.4785354 97.9757317,68.4847699 L40.4201771,68.4847699 Z" id="Path"></path>
                        <path d="M70.7777766,23.393336 L70.7777766,24.1844471 C70.7777766,26.8248595 68.7067099,28.9307972 66.11111,28.9307972 L65.3333322,28.9307972 L65.3333322,32.0952416 L66.11111,32.0952416 C70.3882655,32.0952416 73.8888876,28.5346088 73.8888876,24.1844471 L73.8888876,23.393336 L70.7777766,23.393336 Z" id="Path"></path>
                        <path d="M33.4444439,70.0698401 C33.4444439,70.9438596 34.1410216,71.6520623 34.9999994,71.6520623 C35.8589772,71.6520623 36.5555549,70.9438596 36.5555549,70.0698401 C36.5555549,69.1955041 35.8589772,68.4876179 34.9999994,68.4876179 C34.1410216,68.4876179 33.4444439,69.1955041 33.4444439,70.0698401 Z" id="Path" fill-rule="nonzero"></path>
                        <path d="M95.666665,43.4733178 C91.3895096,43.4733178 87.8888874,47.0336342 87.8888874,51.3841124 L87.8888874,55.3393514 L91.7777762,55.3393514 C96.0549317,55.3393514 99.5555539,51.779035 99.5555539,47.4285569 L99.5555539,43.4733178 L97.9999983,43.4733178 L95.666665,43.4733178 Z M95.666665,46.6374458 L96.4444428,46.6374458 L96.4444428,47.4285569 C96.4444428,50.0689693 94.3736873,52.174907 91.7777762,52.174907 L90.9999985,52.174907 L90.9999985,51.3841124 C90.9999985,48.7437 93.070754,46.6374458 95.666665,46.6374458 Z" id="Shape"></path>
                        <path d="M79.333332,43.4733178 L79.333332,45.0552236 L79.333332,47.4285569 C79.333332,51.779035 82.8339541,55.3393514 87.1111096,55.3393514 L90.9999985,55.3393514 L90.9999985,51.3841124 C90.9999985,47.0336342 87.4993763,43.4733178 83.2222208,43.4733178 L79.333332,43.4733178 Z M82.444443,46.6374458 L83.2222208,46.6374458 C85.8181319,46.6374458 87.8888874,48.7437 87.8888874,51.3841124 L87.8888874,52.174907 L87.1111096,52.174907 C84.5151986,52.174907 82.444443,50.0689693 82.444443,47.4285569 L82.444443,46.6374458 Z" id="Shape"></path>
                        <path d="M95.666665,30.0247456 C91.3895096,30.0247456 87.8888874,33.5853785 87.8888874,37.9355402 L87.8888874,41.8910956 L91.7777762,41.8910956 C96.0549317,41.8910956 99.5555539,38.3304628 99.5555539,33.9803011 L99.5555539,30.0247456 L97.9999983,30.0247456 L95.666665,30.0247456 Z M95.666665,33.18919 L96.4444428,33.18919 L96.4444428,33.9803011 C96.4444428,36.6203971 94.3736873,38.7266513 91.7777762,38.7266513 L90.9999985,38.7266513 L90.9999985,37.9355402 C90.9999985,35.2954442 93.070754,33.18919 95.666665,33.18919 Z" id="Shape"></path>
                        <path d="M79.333332,30.0247456 L79.333332,31.6069678 L79.333332,33.9803011 C79.333332,38.3304628 82.8339541,41.8910956 87.1111096,41.8910956 L90.9999985,41.8910956 L90.9999985,37.9355402 C90.9999985,33.5853785 87.4993763,30.0247456 83.2222208,30.0247456 L79.333332,30.0247456 Z M82.444443,33.18919 L83.2222208,33.18919 C85.8181319,33.18919 87.8888874,35.2954442 87.8888874,37.9355402 L87.8888874,38.7266513 L87.1111096,38.7266513 C84.5151986,38.7266513 82.444443,36.6203971 82.444443,33.9803011 L82.444443,33.18919 Z" id="Shape"></path>
                        <path d="M95.666665,16.5764899 C91.3895096,16.5764899 87.8888874,20.1371227 87.8888874,24.4872844 L87.8888874,28.4425234 L91.7777762,28.4425234 C96.0549317,28.4425234 99.5555539,24.882207 99.5555539,20.5317289 L99.5555539,16.5764899 L97.9999983,16.5764899 L95.666665,16.5764899 Z M95.666665,19.7409342 L96.4444428,19.7409342 L96.4444428,20.5317289 C96.4444428,23.1721413 94.3736873,25.2783955 91.7777762,25.2783955 L90.9999985,25.2783955 L90.9999985,24.4872844 C90.9999985,21.846872 93.070754,19.7409342 95.666665,19.7409342 Z" id="Shape"></path>
                        <path d="M79.333332,16.5764899 L79.333332,18.1587121 L79.333332,20.5317289 C79.333332,24.882207 82.8339541,28.4425234 87.1111096,28.4425234 L90.9999985,28.4425234 L90.9999985,24.4872844 C90.9999985,20.1371227 87.4993763,16.5764899 83.2222208,16.5764899 L79.333332,16.5764899 Z M82.444443,19.7409342 L83.2222208,19.7409342 C85.8181319,19.7409342 87.8888874,21.846872 87.8888874,24.4872844 L87.8888874,25.2783955 L87.1111096,25.2783955 C84.5151986,25.2783955 82.444443,23.1721413 82.444443,20.5317289 L82.444443,19.7409342 Z" id="Shape"></path>
                        <path d="M89.4444429,0.452063465 L88.3446652,1.57069456 L86.6917319,3.25196386 C83.6674208,6.32780381 83.6674208,11.3621184 86.6917319,14.4379583 C87.2420874,14.9977486 88.3446652,16.1128988 88.3446652,16.1128988 L89.4444429,17.2318463 L92.197154,14.4379583 C95.221465,11.3624348 95.221465,6.32780381 92.197154,3.25196386 C91.6471096,2.69249009 90.5442207,1.57069456 90.5442207,1.57069456 L89.4444429,0.452063465 Z M89.4444429,4.92658783 C89.6902207,5.17657894 89.8134207,5.30189094 89.9972874,5.4889096 C91.8328429,7.35593179 91.8328429,10.3343069 89.9972874,12.2010126 L89.4444429,12.7570055 C89.2017763,12.5101788 89.0801318,12.386449 88.8975096,12.2010126 L88.8975096,12.2010126 C87.0619541,10.3339904 87.0619541,7.35593179 88.8975096,5.4889096 L89.4444429,4.92658783 Z" id="Shape"></path>
                        <polygon id="Path" points="87.8888874 57.7126847 87.8888874 70.3698294 90.9999985 70.3698294 90.9999985 57.7126847"></polygon>
                        <path d="M5.44444435,35.259686 C5.44444435,37.8997819 3.37337772,40.0060361 0.777777765,40.0060361 L0,40.0060361 L0,43.1704805 L0.777777765,43.1704805 C5.05493325,43.1704805 8.55555541,39.6098477 8.55555541,35.259686 C6.88208877,35.2280415 5.68088879,35.1837393 5.44444435,35.259686 Z" id="Path"></path>
                    </g>
                </g>
            </g>
        </g>
    </g>
</svg>