<?xml version="1.0" encoding="UTF-8"?>
<svg width="81px" height="78px" viewBox="0 0 81 78" version="1.1" xmlns="http://www.w3.org/2000/svg" xmlns:xlink="http://www.w3.org/1999/xlink">
    <title>noun_food and beverage_1075811</title>
    <g id="home" stroke="none" stroke-width="1" fill="none" fill-rule="evenodd">
        <g id="homepage-desktop-v1" transform="translate(-1086.000000, -1810.000000)" fill="#693D3B">
            <g id="What-We-do" transform="translate(228.000000, 1564.394286)">
                <g id="Food-&amp;-Beverage" transform="translate(803.000000, 246.668571)">
                    <g id="noun_food-and-beverage_1075811" transform="translate(55.000000, 0.000000)">
                        <path d="M7.7260534,0.00136398854 C6.85107342,0.0993880774 6.11775344,0.936849575 6.12297344,1.83222108 L6.12297344,6.69543524 C6.10047344,6.84688374 6.10047344,7.00171017 6.12297344,7.15314951 C6.13197344,7.4307166 6.19587344,7.70695632 6.31989343,7.95414949 L7.13547341,10.9865066 L3.84489359,23.0873277 L1.31355366,25.8622204 C1.04832366,26.1437971 0.894063666,26.5307213 0.891723364,26.9206847 L0.891723364,73.4073181 C0.891723364,74.2162823 1.61514365,74.952653 2.41047363,74.9521038 C9.87300334,74.9521038 17.3354431,74.9521038 24.7979729,74.9521038 C25.5933029,74.952653 26.3172629,74.2162823 26.3167229,73.4073181 L26.3167229,66.1124511 C28.0252829,66.8847981 29.8347328,67.5514132 31.8573928,68.0577367 L31.8573928,73.2356752 C31.8573928,74.194312 32.7149127,75.0665323 33.6573927,75.0665323 C40.7448925,75.0665323 47.8323923,75.0665323 54.9198921,75.0665323 C55.8623721,75.0665323 56.7198921,74.194312 56.7198921,73.2356752 L56.7198921,68.0577367 C65.2194919,65.9654332 71.2339217,61.2128944 75.0010534,56.3288085 C76.9897834,53.750504 78.3683133,51.140251 79.1917233,48.8051759 C80.0152233,46.4700092 80.3483133,44.4644883 79.9229733,42.6832475 C79.7358633,41.8936903 78.9777033,41.2842896 78.1792233,41.2814517 L63.0760519,41.2814517 L77.7010533,26.4057561 C78.2181033,25.8974461 78.3881133,25.0577876 78.1107333,24.3829978 C77.8333533,23.7082171 77.1262234,23.2416231 76.4073934,23.2589705 C75.9469534,23.2701387 75.4936234,23.4692902 75.1698934,23.8025062 L58.997972,40.2515946 L73.1448935,15.506435 C73.7946034,14.4085799 72.8857835,12.7481573 71.6260535,12.7315422 C70.9830917,12.7156138 70.3443617,13.0803113 70.0229717,13.6469708 L54.2448922,41.2814517 C44.9354724,41.2814517 35.6261427,41.2814517 26.3167229,41.2814517 L26.3167229,26.9206847 C26.3257229,26.5344837 26.1782129,26.1482186 25.9229729,25.8622204 L23.363553,23.0873277 L20.0729731,10.9865066 L20.916723,7.89693521 C21.045063,7.64121024 21.113103,7.3544431 21.113553,7.06732809 L21.113553,1.83222108 C21.113463,0.873611771 20.2560331,0.00145553139 19.3135531,0.00136398854 L7.92297339,0.00136398854 C7.85727339,-0.00229772565 7.79166339,-0.00229772565 7.7260534,0.00136398854 L7.7260534,0.00136398854 Z M9.72297334,3.66307818 L17.5135531,3.66307818 L17.5135531,5.23647099 L9.72297334,5.23647099 L9.72297334,3.66307818 Z M9.72297334,8.89818518 L17.4854731,8.89818518 L17.0354731,10.5573994 C16.9616732,10.8270755 16.9616732,11.1173304 17.0354731,11.3870065 L20.5229731,24.2602205 C20.5886731,24.5057018 20.7158431,24.7340097 20.888553,24.9181848 L23.279223,27.5214347 L23.279223,71.8625324 C16.8291932,71.8625324 10.3792533,71.8625324 3.92922359,71.8625324 L3.92922359,27.5214347 L6.31989343,24.9181848 C6.49260343,24.7340097 6.61941342,24.5057018 6.68547342,24.2602205 L10.1729733,11.3870065 C10.2467733,11.1173304 10.2467733,10.8270755 10.1729733,10.5573994 L9.72297334,8.89818518 Z M26.3167229,44.9431659 C35.7104727,44.9431659 45.1042224,44.9431659 54.4979722,44.9431659 L76.4073934,44.9431659 C76.3209934,45.6567425 76.1388334,46.5534047 75.7885534,47.5464616 C75.1094134,49.4727064 73.9158334,51.7931347 72.1604735,54.06889 C68.6497518,58.6204008 62.9413219,63.0892483 54.5542222,64.7965225 C53.7576322,64.9645952 53.1283522,65.742801 53.1198922,66.5701653 L53.1198922,71.4048181 C47.2323623,71.4048181 41.3449225,71.4048181 35.4573927,71.4048181 L35.4573927,66.5701653 C35.4483927,65.7427095 34.8195627,64.9645952 34.0229727,64.7965225 C31.0678228,64.1952691 28.6460128,63.2409348 26.3167229,62.0502369 L26.3167229,44.9431659 Z" id="Shape"></path>
                    </g>
                </g>
            </g>
        </g>
    </g>
</svg>