<?xml version="1.0" encoding="UTF-8"?>
<svg width="80px" height="85px" viewBox="0 0 80 85" version="1.1" xmlns="http://www.w3.org/2000/svg" xmlns:xlink="http://www.w3.org/1999/xlink">
    <title>noun_Cosmetics_2072478</title>
    <g id="home" stroke="none" stroke-width="1" fill="none" fill-rule="evenodd">
        <g id="homepage-desktop-v1" transform="translate(-1075.000000, -1601.000000)" fill="#693D3B" fill-rule="nonzero">
            <g id="What-We-do" transform="translate(228.000000, 1564.394286)">
                <g id="Cosmetics" transform="translate(791.000000, 37.137143)">
                    <g id="noun_Cosmetics_2072478" transform="translate(56.000000, 0.000000)">
                        <path d="M4,82.185138 L13.3333325,82.185138 L13.3333325,79.4727572 L4,79.4727572 C3.26362014,79.4727572 2.66666651,78.86557 2.66666651,78.1165668 L2.66666651,55.0613301 L16,55.0613301 L16,52.3489493 L5.33333302,52.3489493 L5.33333302,48.2803781 L14.6666658,48.2803781 L14.6666658,45.5679973 L5.33333302,45.5679973 L5.33333302,27.9375221 L14.6666658,27.9375221 L14.6666658,25.2251414 L8,25.2251414 L8,9.90697084 C8.05466619,9.95986226 8.10266618,10.0168223 8.15866618,10.0697137 C9.8840115,11.8215194 12.1798803,12.8707071 14.6133325,13.0194278 C15.0815971,13.0229496 15.5481375,12.9613509 16,12.8363421 L16,21.1565702 L18.6666656,21.1565702 L18.6666656,8.95085661 L18.6493322,8.95085661 C18.3724936,6.92926956 17.3727704,5.08240601 15.8413324,3.76342835 C12.8453326,0.915428517 8.9413328,-0.013561904 6.76266626,1.59352371 C5.90784847,2.2306085 5.38472009,3.22891299 5.34133301,4.30590451 C5.33271914,4.49804288 5.33583624,4.69053981 5.35066635,4.88228542 L5.33333302,4.88228542 L5.33333302,25.2251414 L4,25.2251414 C3.26362014,25.2251414 2.66666651,25.8323285 2.66666651,26.5813317 L2.66666651,52.3489493 L1.33333325,52.3489493 C0.596953631,52.3489493 0,52.9561364 0,53.7051397 L0,78.1165668 C0,80.3635766 1.79086089,82.185138 4,82.185138 Z M8.3279995,3.78919596 C8.63985028,3.59607405 9.00219272,3.50429038 9.36666611,3.52609503 C11.1298424,3.67707513 12.7817815,4.46453074 14.0239992,5.74617871 C15.1433327,6.62560413 15.8578744,7.93451455 15.999999,9.36585087 C16.0073635,9.63245425 15.8858125,9.88580418 15.6746657,10.0439461 C14.8226658,10.6718622 12.2426659,10.2311003 9.97866607,8.08560714 C8.85864944,7.20700017 8.14313952,5.89857305 7.99999952,4.46729116 C7.99325148,4.20019446 8.11584608,3.94674687 8.3279995,3.78919596 Z" id="Shape"></path>
                        <path d="M79.9999962,38.7870453 C80.0039598,22.5256631 68.2079397,8.75631437 52.3704331,6.53539814 C36.5329264,4.31448191 21.5138807,14.3235156 17.1916477,29.9793408 C12.8694146,45.635166 20.5703285,62.1335867 35.2293312,68.623234 L17.3333323,68.623234 C16.5969527,68.623234 15.999999,69.2304211 15.999999,69.9794244 L15.999999,75.404186 C16.0044072,79.1473436 18.9865947,82.1806542 22.6666653,82.185138 L73.333329,82.185138 C77.0133996,82.1806542 79.9955871,79.1473436 79.9999962,75.404186 L79.9999962,69.9794244 C79.9999962,69.2304211 79.4030416,68.623234 78.666662,68.623234 L60.770663,68.623234 C72.4379397,63.4457308 79.9857361,51.7345869 79.9999962,38.7870453 Z M77.3333287,71.3356148 L77.3333287,75.404186 C77.3333287,77.6511958 75.5424678,79.4727572 73.333329,79.4727572 L22.6666656,79.4727572 C20.4575264,79.4727572 18.6666656,77.6511958 18.6666656,75.404186 L18.6666656,71.3356148 L38.6666656,71.3356148 L38.6666656,72.6918052 C38.6666656,74.938815 40.4575253,76.7603764 42.6666656,76.7603764 L53.3333302,76.7603764 C55.542469,76.7603764 57.3333299,74.938815 57.3333299,72.6918052 L57.3333299,71.3356148 L77.3333287,71.3356148 Z M41.3333309,72.6918052 L41.3333309,71.3356148 L54.6666634,71.3356148 L54.6666634,72.6918052 C54.6666634,73.4408085 54.0697098,74.0479956 53.3333309,74.0479956 L42.6666641,74.0479956 C41.9302845,74.0479956 41.3333309,73.4408085 41.3333309,72.6918052 Z M47.9999971,68.623234 C31.7996454,68.623234 18.6666656,55.2651173 18.6666656,38.7870453 C18.6666656,22.3089733 31.7996454,8.95085661 47.9999971,8.95085661 C64.2003488,8.95085661 77.3333287,22.3089733 77.3333287,38.7870453 C77.3149592,55.2573718 64.1927338,68.6045496 47.9999971,68.623234 L47.9999971,68.623234 Z" id="Shape"></path>
                        <path d="M47.9999986,14.3756182 C34.7451639,14.3756182 23.9999986,25.3049864 23.9999986,38.7870453 C23.9999986,52.2691042 34.7451639,63.1984724 47.9999986,63.1984724 C61.2548303,63.1984724 71.9999986,52.2691042 71.9999986,38.7870453 C71.9845662,25.3114924 61.248434,14.3913122 47.9999986,14.3756182 Z M47.9999971,60.4860916 C36.2179232,60.4860916 26.6666651,50.7710977 26.6666651,38.7870453 C26.6666651,26.8029929 36.2179232,17.087999 47.9999971,17.087999 C59.7820711,17.087999 69.3333292,26.8029929 69.3333292,38.7870453 C69.3193697,50.7652114 59.776284,60.4718928 47.9999971,60.4860916 L47.9999971,60.4860916 Z" id="Shape"></path>
                        <polygon id="Rectangle" transform="translate(48.000079, 38.107918) rotate(-45.000000) translate(-48.000079, -38.107918) " points="35.6497843 36.8682131 60.3732305 36.6580988 60.3503734 39.3476225 35.6269272 39.5577367"></polygon>
                        <polygon id="Rectangle" transform="translate(40.332851, 32.345483) rotate(-45.000000) translate(-40.332851, -32.345483) " points="34.163754 31.0532473 46.5248047 30.9481959 46.5019476 33.6377195 34.1408969 33.7427709"></polygon>
                        <polygon id="Rectangle" transform="translate(55.666960, 43.195178) rotate(-45.000000) translate(-55.666960, -43.195178) " points="49.4978628 41.9029417 61.8589135 41.7978903 61.8360563 44.4874139 49.4750056 44.5924653"></polygon>
                        <rect id="Rectangle" x="5.33333302" y="57.7737108" width="2.66666651" height="2.71238079"></rect>
                        <rect id="Rectangle" x="5.33333302" y="63.1984724" width="2.66666651" height="13.561904"></rect>
                    </g>
                </g>
            </g>
        </g>
    </g>
</svg>