<?xml version="1.0" encoding="UTF-8"?> <svg xmlns="http://www.w3.org/2000/svg" xmlns:xlink="http://www.w3.org/1999/xlink" height="100px" width="100px" fill="#693d3b" version="1.1" x="0px" y="0px" viewBox="0 0 100 100" xml:space="preserve"><path d="M93.458,51.339c-0.161-0.313-1.651-3.079-4.46-3.711c-1.138-0.256-2.935-0.232-4.997,1.348 c-0.059,0.045-0.113,0.094-0.165,0.147c-0.021,0.022-2.189,2.263-5.571,5.645l-1.671,1.211c-0.642-0.634-1.664-1.188-3.321-1.309 c-0.272-0.015-0.554,0.038-0.8,0.165c-1.386,0.719-4.957,2.431-7.615,3.24c-0.013-0.012-0.022-0.025-0.035-0.037 c-5.07-4.44-10.256-5.512-14.773-5.105c-0.646-2.184-1.95-9.009,3.115-18.083c2.593,2.525,6.179,4.082,9.799,4.082 c0.345,0,0.69-0.014,1.036-0.042c7.636-0.61,11.208-7.325,14.662-13.818c2.8-5.263,5.445-10.234,10.006-12.036 c0.574-0.227,0.95-0.783,0.948-1.4c-0.002-0.618-0.382-1.17-0.958-1.394c-2.02-0.783-3.955-1.317-5.916-1.632 c-1.736-0.279-3.657-0.42-5.71-0.42c-13.131,0-26.798,5.219-27.729,16.879c-0.18,2.245,0.306,4.511,1.404,6.553 c0.142,0.263,0.293,0.52,0.452,0.771c-0.075,0.08-0.145,0.167-0.202,0.266c-1.756,2.996-2.874,5.797-3.564,8.336 c-0.782-1.197-1.867-2.332-3.352-3.093c0.019-0.033,0.043-0.063,0.061-0.096c0.796-1.481,1.146-3.124,1.016-4.748 c-0.662-8.286-10.251-11.994-19.46-11.994c-1.431,0-2.771,0.099-3.984,0.293c-1.01,0.163-1.95,0.46-2.859,0.747 c-0.384,0.122-0.768,0.243-1.153,0.352c-0.619,0.175-1.058,0.725-1.09,1.368s0.349,1.234,0.947,1.471 c2.961,1.17,4.732,4.5,6.607,8.025c2.313,4.346,4.934,9.272,10.42,9.711c0.249,0.02,0.498,0.03,0.747,0.03 c2.56,0,5.018-1.038,6.855-2.757c0.052,0.029,0.102,0.061,0.157,0.084c3.381,1.392,4.078,6.143,4.085,6.19 c0.009,0.066,0.043,0.121,0.061,0.183c-0.154,2.997,0.263,5.293,0.626,6.661c-5.625,1.324-9.702,4.544-10.308,5.043 c-0.006-0.001-0.013-0.002-0.019-0.003c-2.563-0.384-7.525-2.749-9.222-3.627c-0.246-0.127-0.522-0.184-0.8-0.165 c-1.657,0.121-2.68,0.675-3.321,1.309l-1.671-1.211c-3.382-3.382-5.55-5.623-5.571-5.645c-0.052-0.053-0.106-0.103-0.165-0.147 c-2.063-1.581-3.858-1.604-4.997-1.348c-2.809,0.632-4.299,3.397-4.46,3.711c-0.223,0.435-0.22,0.952,0.008,1.384 c0.676,1.28,6.664,12.581,8.986,15.019c2.386,2.505,6.281,4.581,6.362,4.621l5.802,3.564c0.044,0.029,1.054,0.731,0.448,3.135 l-3.735,10.532c-0.276,0.781,0.132,1.638,0.913,1.915c0.165,0.059,0.335,0.087,0.501,0.087c0.617,0,1.195-0.384,1.414-0.999 l3.758-10.596c0.014-0.041,0.026-0.082,0.038-0.124c1.255-4.828-1.738-6.495-1.79-6.52l-5.861-3.599 c-0.036-0.019-3.625-1.931-5.678-4.086c-1.605-1.686-6.053-9.749-8.095-13.577c0.42-0.562,1.143-1.338,2.047-1.541 c0.734-0.167,1.534,0.074,2.43,0.738c0.431,0.444,2.529,2.602,5.608,5.681c0.056,0.056,0.116,0.107,0.18,0.153l2.413,1.75 c0.025,2.116,1.312,4.326,1.997,5.354c2.572,3.781,10.208,6.999,11.07,7.353c0.771,0.317,1.645-0.051,1.958-0.817 c0.314-0.766-0.051-1.643-0.817-1.958c-2.111-0.868-7.975-3.686-9.723-6.254c-1.319-1.979-1.699-3.647-1.394-4.273 c0.171-0.349,0.71-0.506,1.172-0.576c1.493,0.75,6.646,3.259,9.751,3.723c5.232,0.783,6.476,1.206,6.619,1.259 c0.139,0.065,0.287,0.109,0.439,0.129c0.021,0.003,2.225,0.343,3.52,2.222c1.071,1.555,1.274,3.778,0.605,6.609 c-1.488,6.296-1.733,14.434-1.846,21.567c-0.013,0.828,0.648,1.51,1.477,1.523c0.008,0,0.016,0,0.023,0 c0.817,0,1.487-0.656,1.5-1.477c0.098-6.231,0.303-13.225,1.356-18.928c1.054,5.703,1.259,12.697,1.356,18.928 c0.013,0.82,0.682,1.477,1.5,1.477c0.008,0,0.016,0,0.023,0c0.828-0.013,1.489-0.695,1.477-1.523 c-0.112-7.133-0.357-15.271-1.846-21.567c-0.665-2.813-0.468-5.026,0.586-6.58c1.288-1.899,3.527-2.25,3.539-2.251 c0.152-0.02,0.301-0.063,0.439-0.129c0.144-0.053,1.387-0.476,6.619-1.259c3.104-0.464,8.258-2.973,9.751-3.723 c0.462,0.07,1.001,0.228,1.172,0.576c0.306,0.626-0.074,2.295-1.386,4.262c-1.752,2.575-7.618,5.396-9.73,6.266 c-0.767,0.315-1.132,1.192-0.816,1.958c0.315,0.766,1.19,1.133,1.957,0.816c0.862-0.354,8.498-3.572,11.078-7.365 c0.68-1.019,1.964-3.228,1.989-5.343l2.413-1.75c0.063-0.046,0.124-0.098,0.18-0.153c3.079-3.079,5.178-5.237,5.608-5.681 c0.892-0.661,1.688-0.899,2.419-0.741c0.871,0.191,1.608,0.94,2.06,1.54c-2.041,3.826-6.49,11.894-8.097,13.581 c-2.046,2.147-5.642,4.067-5.761,4.134l-5.702,3.506c-0.128,0.069-3.121,1.736-1.866,6.564c0.012,0.042,0.024,0.083,0.038,0.124 l3.758,10.596c0.219,0.615,0.797,0.999,1.414,0.999c0.166,0,0.336-0.028,0.501-0.087c0.781-0.277,1.189-1.134,0.913-1.915 l-3.735-10.532c-0.605-2.404,0.404-3.106,0.472-3.149l5.695-3.503c0.164-0.087,4.06-2.164,6.445-4.668 c2.322-2.438,8.311-13.739,8.986-15.019C93.678,52.291,93.681,51.774,93.458,51.339z M52.292,25.308 c0.893-11.167,16.572-14.118,24.739-14.118c1.867,0,3.677,0.132,5.233,0.382c0.718,0.115,1.434,0.264,2.153,0.448 c-3.686,2.771-6.077,7.266-8.405,11.643c-3.217,6.046-6.255,11.758-12.253,12.237c-4.19,0.328-8.445-2.039-10.411-5.698 C52.523,28.668,52.158,26.976,52.292,25.308z M34.782,40.041c-3.848-0.308-5.776-3.933-8.01-8.13 c-1.455-2.736-2.946-5.539-5.119-7.497c0.165-0.036,0.33-0.068,0.495-0.095c1.041-0.167,2.254-0.255,3.508-0.255 c5.441,0,15.886,1.93,16.47,9.234c0.086,1.063-0.139,2.103-0.668,3.087C40.196,38.732,37.468,40.258,34.782,40.041z M56.029,59.879 c-0.792,0.151-3.59,0.855-5.384,3.458c-0.25,0.362-0.457,0.75-0.646,1.15c-0.188-0.4-0.396-0.788-0.646-1.15 c-1.794-2.603-4.592-3.307-5.384-3.458c-0.62-0.229-1.743-0.48-3.043-0.725c3.815-2.405,11.862-5.98,20.024-0.33 C58.912,59.162,56.935,59.544,56.029,59.879z M56.013,28.621c0.202-0.375,5.053-9.2,13.702-11.314 c0.811-0.2,1.617,0.297,1.813,1.101c0.196,0.805-0.296,1.616-1.101,1.813c-7.369,1.801-11.731,9.745-11.774,9.825 c-0.271,0.502-0.788,0.788-1.321,0.788c-0.241,0-0.485-0.058-0.712-0.181C55.892,30.26,55.619,29.35,56.013,28.621z M39.599,34.191 c0.446,0.698,0.243,1.625-0.455,2.072c-0.25,0.161-0.53,0.237-0.808,0.237c-0.494,0-0.978-0.244-1.265-0.691 c-2.366-3.697-7.366-5.548-7.416-5.566c-0.778-0.283-1.18-1.144-0.896-1.922c0.282-0.778,1.144-1.18,1.922-0.897 C30.925,27.513,36.69,29.649,39.599,34.191z"></path></svg> 